<svg id="Layer_1" xmlns="http://www.w3.org/2000/svg" xmlns:xlink="http://www.w3.org/1999/xlink" viewBox="0 0 500 500" width="500" height="500" class="illustration"><defs><style>.cls-1{fill:#fff;}.cls-2{fill:#ff1778;}.cls-3{fill:#f9bb0d;}.cls-4{fill:#e1e1e1;}.cls-5{clip-path:url(#clippath);}.cls-6{fill:none;}.cls-7{fill:#0086f4;}.cls-8{fill:#24285b;}.cls-9{fill:#ffd44d;}.cls-10{fill:#27215e;}.cls-11{fill:#0099f5;}</style><clipPath id="clippath"><path class="cls-6" d="M334.36,60.21H165.66c-17.44,0-31.58,14.14-31.58,31.58V398.92c0,1.89,.17,3.73,.49,5.53v4.49c0,17.47,14.17,31.64,31.64,31.64h168.15c17.47,0,31.64-14.17,31.64-31.64V91.85c0-17.47-14.17-31.64-31.64-31.64Z"></path></clipPath></defs><g><rect class="cls-10" x="120" y="43.5" width="260" height="413" rx="31.58" ry="31.58"></rect><rect class="cls-4" x="134.57" y="60.21" width="231.43" height="380.36" rx="31.64" ry="31.64"></rect><rect class="cls-1" x="134.08" y="60.21" width="208.92" height="370.29" rx="31.58" ry="31.58"></rect><path class="cls-10" d="M183,53.5h133v7.61c0,14.56-11.82,26.39-26.39,26.39h-80.22c-14.56,0-26.39-11.82-26.39-26.39v-7.61h0Z"></path><g class="cls-5"><g><g><path class="cls-8" d="M178.02,220.03H88.85c-2.12,0-3.85-1.72-3.85-3.85s1.72-3.85,3.85-3.85h87.71l32.28-28.72c1.59-1.41,4.02-1.27,5.43,.32s1.27,4.02-.32,5.43l-33.37,29.69c-.7,.63-1.61,.97-2.56,.97Z"></path><path class="cls-8" d="M200.59,261.03H94.07c-2.12,0-3.85-1.72-3.85-3.85s1.72-3.85,3.85-3.85h106.52c2.12,0,3.85,1.72,3.85,3.85s-1.72,3.85-3.85,3.85Z"></path><circle class="cls-2" cx="206.21" cy="257.19" r="13.48"></circle><circle class="cls-2" cx="206.21" cy="189.92" r="13.48"></circle><path class="cls-8" d="M175.8,294.14H86.62c-2.12,0-3.85,1.72-3.85,3.85s1.72,3.85,3.85,3.85h87.71l32.28,28.72c1.59,1.41,4.02,1.27,5.43-.32s1.27-4.02-.32-5.43l-33.37-29.69c-.7-.63-1.61-.97-2.56-.97Z"></path><circle class="cls-2" cx="203.98" cy="324.24" r="13.48"></circle></g><g><path class="cls-8" d="M309.16,220.03h89.18c2.12,0,3.85-1.72,3.85-3.85s-1.72-3.85-3.85-3.85h-87.71l-32.28-28.72c-1.59-1.41-4.02-1.27-5.43,.32s-1.27,4.02,.32,5.43l33.37,29.69c.7,.63,1.61,.97,2.56,.97Z"></path><path class="cls-8" d="M286.6,261.03h106.52c2.12,0,3.85-1.72,3.85-3.85s-1.72-3.85-3.85-3.85h-106.52c-2.12,0-3.85,1.72-3.85,3.85s1.72,3.85,3.85,3.85Z"></path><circle class="cls-2" cx="280.98" cy="257.19" r="13.48"></circle><circle class="cls-2" cx="280.98" cy="189.92" r="13.48"></circle></g></g></g></g><g><path class="cls-11" d="M398.8,314.66c-33.54-11.2-57.46-32.99-57.46-32.99,0,0-23.91,21.8-57.46,32.99,0,0-2.02,70.79,57.46,92.93,59.48-22.14,57.46-92.93,57.46-92.93Z"></path><g><path class="cls-8" d="M343.9,315.47h-5.12c-7.12,0-12.92,5.79-12.92,12.92v10.23c0,1.48,1.2,2.69,2.69,2.69s2.69-1.2,2.69-2.69v-10.23c0-4.16,3.38-7.55,7.55-7.55h5.12c4.16,0,7.55,3.38,7.55,7.55v10.25h5.37v-10.25c0-7.12-5.79-12.92-12.92-12.92Z"></path><g><rect class="cls-3" x="319.39" y="337.56" width="43.91" height="36.21" rx="3" ry="3"></rect><rect class="cls-9" x="319.39" y="337.56" width="38.73" height="32.24" rx="3" ry="3"></rect></g><path class="cls-8" d="M346.41,352.54c0-2.89-2.34-5.23-5.23-5.23s-5.23,2.34-5.23,5.23c0,1.81,.92,3.4,2.31,4.34v3.14c0,1.7,1.38,3.08,3.08,3.08s3.08-1.38,3.08-3.08v-3.38c1.21-.96,1.98-2.44,1.98-4.09Z"></path></g><path class="cls-7" d="M398.8,314.66c-33.54-11.2-57.46-32.99-57.46-32.99,0,0-2.92,2.66-8.15,6.6,9.74,7.34,27.48,19.11,49.31,26.39,0,0,1.83,64.15-49.31,89.41,2.58,1.28,5.3,2.45,8.15,3.52,59.48-22.14,57.46-92.93,57.46-92.93Z"></path></g></svg>